<svg xmlns="http://www.w3.org/2000/svg" viewBox="0 0 272 496"><defs><style>.cls-1{fill:#fff;}</style></defs><g id="レイヤー_2" data-name="レイヤー 2"><g id="Icons"><path class="cls-1" d="M208,408H64a8.08,8.08,0,0,1-3.58-.84,41,41,0,0,1-22.43-32L.05,48.92c0-.3,0-.61,0-.92V8A8,8,0,0,1,8,0H264a8,8,0,0,1,8,8V48c0,.31,0,.62-.05.92L234,375.15a41,41,0,0,1-22.43,32A8.08,8.08,0,0,1,208,408ZM66,392H206a25,25,0,0,0,12.15-18.69L256,47.54V16H16V47.54L53.88,373.31A25,25,0,0,0,66,392Z"/><path class="cls-1" d="M51.59,144A8,8,0,0,1,43.66,137L40.8,113a8,8,0,0,1,15.89-1.9l2.86,24a8,8,0,0,1-7,8.89A7.73,7.73,0,0,1,51.59,144Z"/><path class="cls-1" d="M75.43,344A8,8,0,0,1,67.5,337L51.29,201a8,8,0,0,1,15.89-1.9l16.21,136a8,8,0,0,1-7,8.89A7.73,7.73,0,0,1,75.43,344Z"/><path class="cls-1" d="M196,496H76a20,20,0,0,1-20-20V400a8,8,0,0,1,16,0v76a4,4,0,0,0,4,4H196a4,4,0,0,0,4-4V400a8,8,0,0,1,16,0v76A20,20,0,0,1,196,496Z"/><path class="cls-1" d="M264,56H40a8,8,0,0,1,0-16H264a8,8,0,0,1,0,16Z"/></g></g></svg>